<svg xmlns="http://www.w3.org/2000/svg" viewBox="0 0 320.7 93.1">
  <defs>
    <style>
      .cls-1 {
        fill: #1b293f;
      }

      .cls-2 {
        fill: #90588e;
      }

      .cls-3 {
        fill: #f4806b;
      }
    </style>
  </defs>
  <g id="Layer_2" data-name="Layer 2">
    <g id="Layer_1-2" data-name="Layer 1">
      <path class="cls-1" d="M55.6,8.4c0,3.3-3.1,5.8-3.7,6.2a4.4,4.4,0,0,0-1.1,2.8,5.7,5.7,0,0,1-.3,1.8c-.5,1.3-.1,1.7.4,2.2l.3.4a4.6,4.6,0,0,1,.3,2.7h-.9a3.3,3.3,0,0,0-.3-2.4l-.4-.5a2.2,2.2,0,0,1-.7-2.2,1.3,1.3,0,0,1,.1-.6c.1-1.5.3-3.7,1.4-4.5a6.9,6.9,0,0,0,2.6-5.5c0-2-.8-3.2-1.8-4.7L51,3.4l-.3-.6c-.9-1.4-1-1.5-2.3-1.5H46.2c-1.2,0-1.3.1-2.1,1.3a3.5,3.5,0,0,1-.5.8l-.4.6a8.2,8.2,0,0,0-1.9,4.8A7.3,7.3,0,0,0,44,14.3c1,.8,1.2,2.9,1.4,4.4s.1.5.1.7a2.4,2.4,0,0,1-.7,2.2l-.4.5a3.3,3.3,0,0,0-.3,2.4h-1a4.7,4.7,0,0,1,.2-2.7l.4-.4a1.9,1.9,0,0,0,.4-2.2,11.6,11.6,0,0,1-.4-1.8,3.9,3.9,0,0,0-1.1-2.8c-.6-.5-3.6-3-3.6-6.2s.5-3.5,1.4-4.8a6.6,6.6,0,0,0,1.1-2.4A1.6,1.6,0,0,1,43.1,0h8.4A1.5,1.5,0,0,1,53,1.2a5.5,5.5,0,0,0,1.2,2.4C55.1,4.9,55.6,5.6,55.6,8.4Z"/>
      <path class="cls-2" d="M45.3,24.5a2,2,0,0,1,.1-1.2l.4-.5a3.4,3.4,0,0,0,.9-3.1h0V19c-.2-1.8-.5-4.2-1.9-5.3a5.9,5.9,0,0,1-2.2-4.4,7,7,0,0,1,1.7-4.2l.4-.6.5-.7.5-.8H49l.6.9a2.1,2.1,0,0,0,.4.6l.4.7c1,1.5,1.6,2.4,1.6,4.1a5.8,5.8,0,0,1-2.1,4.4c-1.5,1.1-1.8,3.6-1.9,5.4,0,.2-.1.4-.1.6a3.2,3.2,0,0,0,1,3.1l.3.5h.1a2.5,2.5,0,0,1,.1,1.2Z"/>
      <path class="cls-1" d="M28.7,12.2c2.1,2.5,1.3,6.3,1.2,7.1s.3,1.8.9,2.8a8.3,8.3,0,0,1,.9,1.6c.5,1.3,1.1,1.3,1.7,1.4h.5c.6.1,1.5,1.2,2,1.9l-.7.6a3.2,3.2,0,0,0-1.8-1.6l-.6-.2c-1-.2-1.3-.2-1.9-1.2l-.4-.5c-.9-1.3-2.1-3.1-1.8-4.4a7.3,7.3,0,0,0-1.5-5.9,9.2,9.2,0,0,0-4.5-2.5l-.7-.2-.7-.2c-1.5-.5-1.7-.5-2.7.3L17,12.7c-1,.8-1,1-.8,2.4a3.1,3.1,0,0,0,.1.9,1.7,1.7,0,0,0,.1.7c.2,2,.3,3.3,1.6,4.9a7.3,7.3,0,0,0,5.6,2.5c1.3-.1,2.8,1.4,3.9,2.5l.5.5a2.3,2.3,0,0,1,.9,2.1v.6c0,.8.7,1.5,1.3,2.1l-.8.6c-.6-.6-1.5-1.6-1.5-2.2v-.6a1.7,1.7,0,0,0-1.1-1.9l-1.4-1.1a3.9,3.9,0,0,0-2.7-1.5c-.7.1-4.7.1-6.7-2.4s-1.9-3-2.1-4.6a4.5,4.5,0,0,0-.7-2.5,1.5,1.5,0,0,1,.5-1.9l6.4-5.5a1.8,1.8,0,0,1,2-.1,6.8,6.8,0,0,0,2.4,1.2C26,9.7,26.8,10,28.7,12.2Z"/>
      <path class="cls-2" d="M31.1,31.1a1.8,1.8,0,0,1-.6-1,1.5,1.5,0,0,1-.1-.6,3.5,3.5,0,0,0-1.2-3h-.1l-.4-.4c-1.3-1.2-3.1-2.9-4.9-2.9a5.2,5.2,0,0,1-4.5-2c-1.1-1.3-1.2-2.3-1.4-4.2a2.5,2.5,0,0,0-.1-.8,1.9,1.9,0,0,0-.1-.8c0-.4-.1-.8,0-.9L18,14l1.7-1.4.5-.3c.1-.1.5.1,1,.3l.7.2.7.2c1.8.5,2.8.8,3.9,2.1a5.5,5.5,0,0,1,1.2,4.7c-.4,1.9,1,4,2,5.4l.4.5a3.2,3.2,0,0,0,2.7,1.8h.6a3.8,3.8,0,0,1,.9.8Z"/>
      <path class="cls-1" d="M10.5,32.3c3.2.6,5.1,4,5.5,4.7a3.6,3.6,0,0,0,2.5,1.5l1.7.7c1.2.7,1.7.4,2.2,0l.5-.3a4.3,4.3,0,0,1,2.7.2l-.2.9a3.3,3.3,0,0,0-2.4-.1l-.5.3a2.3,2.3,0,0,1-2.3.3l-.6-.2c-1.5-.4-3.6-1-4.2-2.1a7,7,0,0,0-4.9-3.6,7.8,7.8,0,0,0-5,1l-.8.3-.6.2c-1.5.7-1.7.8-1.9,2.1l-.3,2.1c-.3,1.2-.1,1.3.9,2.3l.6.6.6.5a7.8,7.8,0,0,0,4.4,2.7,6.5,6.5,0,0,0,5.8-1.7c1-.8,3.1-.7,4.7-.6h.6a2.3,2.3,0,0,1,2.1,1l.4.5a3,3,0,0,0,2.3.7l-.2,1a5,5,0,0,1-2.6-.7l-.3-.4a1.9,1.9,0,0,0-2.1-.8H17.3a3.8,3.8,0,0,0-3,.5c-.5.6-3.5,3.1-6.7,2.6s-3.4-1.1-4.5-2.3A7.1,7.1,0,0,0,.9,44.9,1.7,1.7,0,0,1,0,43.2l1.5-8.3a1.7,1.7,0,0,1,1.4-1.4,5.8,5.8,0,0,0,2.6-.6C6.9,32.2,7.7,31.8,10.5,32.3Z"/>
      <path class="cls-2" d="M24.5,45.2c-.6,0-1-.1-1.1-.3l-.5-.5A3.2,3.2,0,0,0,20,43h-.6c-1.8-.1-4.2-.3-5.6.9a5.3,5.3,0,0,1-4.7,1.4c-1.7-.3-2.5-1-3.8-2.3l-.6-.6-.6-.6c-.3-.2-.6-.5-.6-.6s0-.4,0-.6l.4-2a3.5,3.5,0,0,1,.1-.6l1-.5.6-.2.8-.4c1.7-.7,2.6-1.1,4.3-.9a5.7,5.7,0,0,1,4,2.9c.9,1.7,3.3,2.4,5,2.9h.5a3.4,3.4,0,0,0,3.3-.4l.5-.3h.1a2.3,2.3,0,0,1,1.1.1Z"/>
      <path class="cls-1" d="M9.5,59.4c2.8-1.6,6.5-.2,7.2.1a3.8,3.8,0,0,0,2.9-.4,6.4,6.4,0,0,1,1.8-.6c1.3-.3,1.5-.8,1.7-1.5a1.7,1.7,0,0,1,.2-.5,4.8,4.8,0,0,1,2.2-1.6l.4.8A3.1,3.1,0,0,0,24,57.2a1.4,1.4,0,0,0-.2.6,2.5,2.5,0,0,1-1.6,1.7l-.5.2c-1.5.7-3.4,1.6-4.7,1.1a6.5,6.5,0,0,0-6,.4,7.8,7.8,0,0,0-3.2,4,4.3,4.3,0,0,0-.4.7l-.3.6c-.8,1.4-.8,1.6-.2,2.7L8,71.1c.6,1,.8,1.1,2.2,1.2h1.7a8.4,8.4,0,0,0,5.1-.8,6.9,6.9,0,0,0,3.3-5.1c.2-1.2,2-2.5,3.2-3.4l.6-.4a2.1,2.1,0,0,1,2.2-.5H27a3.3,3.3,0,0,0,2.2-.9l.5.8a5.2,5.2,0,0,1-2.5,1.2h-.5c-.7-.2-1.2-.3-2.1.7a8.1,8.1,0,0,1-1.4,1.2c-.9.7-1.7,1.3-1.8,2.4s-.8,4.6-3.6,6.2-3.3,1.4-4.9,1.2a5.8,5.8,0,0,0-2.6.3,1.8,1.8,0,0,1-1.8-.8L4.3,67.2a1.5,1.5,0,0,1,.2-1.9A6.2,6.2,0,0,0,6,63.1C6.7,61.6,7,60.9,9.5,59.4Z"/>
      <path class="cls-2" d="M28.6,60.3a1.9,1.9,0,0,1-1.1.5h-.7a3.2,3.2,0,0,0-3.1.8h-.1l-.5.4c-1.4,1-3.4,2.4-3.7,4.3a5.3,5.3,0,0,1-2.7,4,7.1,7.1,0,0,1-4.4.7H9.8l-.3-.5L8.4,68.4l-.3-.5a4.5,4.5,0,0,1,.5-1l.3-.6.4-.8A7.1,7.1,0,0,1,12,62.1a5.8,5.8,0,0,1,4.9-.4c1.8.8,4-.3,5.7-1l.5-.3a3.2,3.2,0,0,0,2.2-2.3l.3-.6h0c0-.1.2-.4.9-.7Z"/>
      <path class="cls-1" d="M26.2,80.8c1.1-3,4.8-4.3,5.5-4.5s1.5-1.3,2-2.2a6.2,6.2,0,0,1,1-1.6c.8-1.1.6-1.6.3-2.2s-.1-.3-.1-.5a4.3,4.3,0,0,1,.6-2.6l.9.3a2.7,2.7,0,0,0-.5,2.3,1.4,1.4,0,0,0,.2.6,2.1,2.1,0,0,1-.2,2.3.8.8,0,0,1-.2.5c-.7,1.5-1.6,3.4-2.9,3.8a7.1,7.1,0,0,0-4.4,4.3c-.6,1.9-.3,3.2.1,5.1a1.9,1.9,0,0,1,.2.7,6.4,6.4,0,0,0,.2.7c.3,1.6.4,1.8,1.6,2.2l2,.7c1.2.5,1.3.4,2.5-.5l.7-.5.6-.5a7.9,7.9,0,0,0,3.4-3.8,7,7,0,0,0-.6-6.1c-.7-1.1-.2-3.1.2-4.6s.1-.5.1-.7a2.2,2.2,0,0,1,1.4-1.8l.6-.4a3.6,3.6,0,0,0,1.1-2.1l.9.3a4.2,4.2,0,0,1-1.1,2.5l-.5.3c-.6.2-1.1.5-1.1,1.9a11.3,11.3,0,0,1-.3,1.8c-.2,1-.5,2.1.1,3s2.4,4,1.3,7-1.7,3.2-3,4.1a8.5,8.5,0,0,0-1.9,1.9,1.4,1.4,0,0,1-1.8.5l-7.9-2.8a1.7,1.7,0,0,1-1.1-1.7,7.6,7.6,0,0,0-.2-2.6C25.4,84.4,25.2,83.6,26.2,80.8Z"/>
      <path class="cls-2" d="M41.3,69.3c-.1.6-.3.9-.5,1l-.5.4a3.5,3.5,0,0,0-2,2.6h0c0,.2-.1.4-.1.7s-1,4-.1,5.6a5.5,5.5,0,0,1,.5,4.9c-.6,1.6-1.4,2.2-2.9,3.3l-.6.5-.7.5-.8.5-.5-.2-2-.7-.6-.2c0-.1-.1-.6-.2-1.1s-.1-.4-.2-.6a1.9,1.9,0,0,0-.2-.8,7.4,7.4,0,0,1-.1-4.4,5.3,5.3,0,0,1,3.5-3.4c1.8-.6,2.9-2.9,3.7-4.5s.2-.3.2-.5a3.3,3.3,0,0,0,.2-3.3l-.2-.6h0a1.6,1.6,0,0,1,.3-1.1Z"/>
      <path class="cls-1" d="M52.7,86.5c-1.1-3,.9-6.4,1.3-7a3.5,3.5,0,0,0,.1-3,11.3,11.3,0,0,1-.3-1.8c.1-1.4-.5-1.7-1.1-1.9l-.4-.3A3.7,3.7,0,0,1,51.1,70l.8-.3a3,3,0,0,0,1.2,2.2l.5.3A2.4,2.4,0,0,1,55,74c0,.2.1.4.1.6s1,3.6.2,4.8a7.1,7.1,0,0,0-.6,6,8.4,8.4,0,0,0,3.4,3.8l.6.5.5.4c1.3,1,1.5,1.1,2.7.7l2-.8c1.2-.4,1.3-.6,1.6-2a3.1,3.1,0,0,1,.2-.8,6.4,6.4,0,0,1,.2-.7c.4-2,.7-3.2.1-5.2a7,7,0,0,0-4.4-4.2c-1.2-.4-2.2-2.3-2.8-3.7l-.3-.6a2.4,2.4,0,0,1-.1-2.3,2.5,2.5,0,0,1,.2-.7,3.9,3.9,0,0,0-.5-2.3l.9-.3a5.4,5.4,0,0,1,.7,2.6l-.2.5c-.3.6-.5,1.1.4,2.2s.6,1,.9,1.5a4.2,4.2,0,0,0,2,2.3c.7.2,4.4,1.5,5.5,4.5s.8,3.6.4,5.1a5.7,5.7,0,0,0-.3,2.6,1.6,1.6,0,0,1-1,1.7L59.5,93a1.5,1.5,0,0,1-1.9-.5,5.8,5.8,0,0,0-1.9-1.9C54.4,89.7,53.7,89.2,52.7,86.5Z"/>
      <path class="cls-2" d="M56.9,67.9q.5.9.3,1.2c-.1.2-.1.4-.2.6a3.4,3.4,0,0,0,.2,3.2h0l.3.6c.8,1.5,1.8,3.7,3.6,4.3a5.6,5.6,0,0,1,3.5,3.4c.6,1.6.3,2.6-.1,4.5a6.4,6.4,0,0,0-.2.7c-.1.3-.1.6-.2.9a4.5,4.5,0,0,0-.2.8l-.5.3-2,.7-.6.2-.9-.7-.5-.4-.7-.5c-1.5-1.1-2.3-1.7-2.9-3.3a5.5,5.5,0,0,1,.5-4.8c1-1.7.4-4.1-.1-5.8s-.1-.4-.1-.6a3.9,3.9,0,0,0-2-2.6l-.5-.3h0a2.1,2.1,0,0,1-.5-1.1Z"/>
      <path class="cls-1" d="M76.7,73.8c-2.8-1.6-3.4-5.5-3.5-6.2a4.1,4.1,0,0,0-1.9-2.4A5.3,5.3,0,0,1,69.9,64c-.8-1-1.4-.9-2-.7h-.6a4.9,4.9,0,0,1-2.5-1.1l.5-.8a3.2,3.2,0,0,0,2.2.9h.7a2.1,2.1,0,0,1,2.2.5l.5.3c1.3,1,3,2.2,3.2,3.6a6.8,6.8,0,0,0,3.4,5,8.1,8.1,0,0,0,5,.8H84c1.6-.1,1.8-.1,2.5-1.3l1.1-1.8c.6-1,.5-1.2-.1-2.5a2,2,0,0,1-.4-.8l-.4-.7a7.8,7.8,0,0,0-3.2-4,6.5,6.5,0,0,0-6-.4c-1.3.5-3.2-.4-4.6-1l-.6-.3a2.5,2.5,0,0,1-1.6-1.7c-.1-.2-.1-.4-.2-.6a3.6,3.6,0,0,0-1.9-1.5l.5-.8a5.3,5.3,0,0,1,2.2,1.5c.1.2.1.4.2.5s.3,1.2,1.6,1.5a6.4,6.4,0,0,1,1.8.6,3.8,3.8,0,0,0,2.9.4c.7-.3,4.5-1.7,7.2-.1s2.9,2.3,3.5,3.7A6.2,6.2,0,0,0,90,65.3a1.7,1.7,0,0,1,.3,1.9l-4.2,7.3a1.9,1.9,0,0,1-1.8.8,6.3,6.3,0,0,0-2.7-.3C80.1,75.2,79.2,75.3,76.7,73.8Z"/>
      <path class="cls-2" d="M68,56.9a1.7,1.7,0,0,1,.9.7l.3.6a3.4,3.4,0,0,0,2.2,2.4h0l.6.2c1.6.8,3.8,1.7,5.6,1.1a5.4,5.4,0,0,1,4.9.3,6.9,6.9,0,0,1,2.7,3.5l.4.7a1.6,1.6,0,0,0,.4.7c.1.4.3.8.3.9l-.2.5L85,70.3c-.1.2-.2.5-.3.5H82.1a6.9,6.9,0,0,1-4.3-.7,5.4,5.4,0,0,1-2.8-4c-.2-1.9-2.3-3.4-3.7-4.4l-.5-.3a3.4,3.4,0,0,0-3.2-.8H67c-.1,0-.4,0-1.1-.5Z"/>
      <path class="cls-1" d="M86.9,48.7c-3.2.5-6.2-2-6.7-2.6a4,4,0,0,0-2.9-.5H75.4c-1.3-.2-1.7.3-2,.8l-.4.4a4.7,4.7,0,0,1-2.6.7l-.2-.9a2.6,2.6,0,0,0,2.3-.7l.5-.5a2.2,2.2,0,0,1,2-1h.6c1.6-.2,3.7-.4,4.7.6a7,7,0,0,0,5.9,1.6,7.6,7.6,0,0,0,4.3-2.6l.6-.6.5-.4c1.2-1.1,1.3-1.3,1.1-2.6l-.4-2.1c-.2-1.2-.4-1.3-1.7-1.8l-.8-.4-.7-.3c-1.8-.8-3-1.3-5-1a7,7,0,0,0-4.9,3.6c-.7,1.1-2.7,1.7-4.2,2.1l-.6.2a2.1,2.1,0,0,1-2.3-.3l-.6-.3a4,4,0,0,0-2.4.1l-.2-1a6.9,6.9,0,0,1,2.8-.2l.4.3c.5.4,1,.7,2.2,0a4.9,4.9,0,0,1,1.7-.6c1.1-.4,2.1-.7,2.6-1.6s2.3-4.1,5.4-4.7,3.6-.1,5,.6a7.1,7.1,0,0,0,2.6.7A1.5,1.5,0,0,1,93,34.9l1.5,8.3a1.5,1.5,0,0,1-.9,1.7,8.2,8.2,0,0,0-2.2,1.6C90.3,47.6,89.8,48.2,86.9,48.7Z"/>
      <path class="cls-2" d="M69.3,41.3a1.7,1.7,0,0,1,1.2-.1l.6.3a3.2,3.2,0,0,0,3.2.4h0l.7-.2c1.7-.4,4-1.1,4.9-2.7a5.3,5.3,0,0,1,4-2.9c1.6-.3,2.6.1,4.3.9l.7.3.8.3c.4.2.8.3.8.4s.1.4.2.5l.3,2.1a1.8,1.8,0,0,1,.1.6,2.8,2.8,0,0,1-.8.8l-.5.5-.6.5c-1.3,1.3-2.1,2-3.7,2.3A5.5,5.5,0,0,1,80.8,44c-1.5-1.3-3.9-1.1-5.7-1h-.6a3.7,3.7,0,0,0-2.9,1.4l-.4.5h0a2.1,2.1,0,0,1-1.2.4Z"/>
      <path class="cls-1" d="M78.6,22.8c-2.1,2.5-6,2.5-6.8,2.4a3.7,3.7,0,0,0-2.6,1.5,8.3,8.3,0,0,1-1.5,1.1,1.9,1.9,0,0,0-1.1,1.9c0,.2.1.4,0,.6a3.8,3.8,0,0,1-1.5,2.2l-.7-.6a2.8,2.8,0,0,0,1.3-2v-.6a2.9,2.9,0,0,1,.9-2.2.8.8,0,0,0,.4-.4c1.2-1.1,2.7-2.6,4.1-2.5a7.3,7.3,0,0,0,5.5-2.5c1.3-1.6,1.4-3,1.6-4.8a2.5,2.5,0,0,0,.1-.8,2,2,0,0,0,.1-.7c.2-1.6.2-1.8-.8-2.7L76,11.4c-.9-.8-1.1-.8-2.5-.4l-.8.3-.8.2c-1.8.6-3.1.9-4.5,2.5A6.7,6.7,0,0,0,66,19.9c.2,1.2-1,3-1.8,4.3a2.1,2.1,0,0,0-.4.6A2.5,2.5,0,0,1,61.9,26h-.7a4,4,0,0,0-1.8,1.6l-.7-.6c.4-.7,1.3-1.8,1.9-1.9h.5c.7-.1,1.3-.1,1.7-1.4a8.3,8.3,0,0,1,.9-1.6,3.9,3.9,0,0,0,1-2.8c-.2-.8-.9-4.7,1.1-7.1S68.5,9.8,70,9.4a6.4,6.4,0,0,0,2.5-1.2,1.7,1.7,0,0,1,1.9.1l6.5,5.5a1.6,1.6,0,0,1,.4,1.9,7.2,7.2,0,0,0-.7,2.5C80.5,19.8,80.4,20.6,78.6,22.8Z"/>
      <path class="cls-2" d="M60.4,28.5c.3-.5.6-.8.8-.8h.6a3.9,3.9,0,0,0,2.8-1.8h0a2.1,2.1,0,0,1,.4-.6c.9-1.4,2.3-3.5,1.9-5.3a6,6,0,0,1,1.2-4.8,7.3,7.3,0,0,1,3.9-2l.8-.3.8-.2.9-.2.4.3L76.5,14l.5.5a6.6,6.6,0,0,1-.1,1.1c0,.2-.1.4-.1.6s-.1.6-.1.8c-.2,1.9-.3,2.9-1.4,4.2a5.5,5.5,0,0,1-4.5,2c-1.9-.1-3.6,1.7-4.9,3l-.4.3a3.4,3.4,0,0,0-1.3,3v.7h0c0,.1-.1.4-.7,1Z"/>
      <g>
        <polygon class="cls-1" points="49.4 42.5 51.7 48.1 47.2 52 42 48.9 43.4 43 49.4 42.5"/>
        <g>
          <polygon class="cls-3" points="46.7 53.7 47.3 59.9 42.5 61.6 36.7 58 35.8 52.4 40.8 50.2 46.7 53.7"/>
          <polygon class="cls-3" points="41.7 41.8 40.1 48.6 35.1 50.8 32.1 46.8 33.8 39.6 37.9 37.3 41.7 41.8"/>
          <polygon class="cls-3" points="59.2 50.8 59.7 56.1 54.5 60.8 49 59.8 48.4 53.5 48.4 53.5 53.6 49.1 59.2 50.8"/>
          <polygon class="cls-3" points="52.8 35.6 49.9 40.1 49.9 40.1 43 40.7 39.3 36.1 42.1 32.3 49.3 31.6 52.8 35.6"/>
          <polygon class="cls-3" points="59.5 37.9 62.2 44.7 59.6 49.1 54 47.4 51.3 41 54.3 36.5 59.5 37.9"/>
        </g>
      </g>
      <g>
        <path class="cls-1" d="M118.7,34.7h4.4V54.8h-4.4Z"/>
        <path class="cls-1" d="M134.7,44.8h0a10.1,10.1,0,0,1,10.4-10.4,10.5,10.5,0,0,1,7.9,3.1l-2.8,3.2a7.4,7.4,0,0,0-5.1-2.2,5.9,5.9,0,0,0-5.8,6.2h0c0,3.4,2.3,6.2,5.8,6.2a7,7,0,0,0,5.2-2.3l2.8,2.8a10.5,10.5,0,0,1-18.4-6.7Z"/>
        <path class="cls-1" d="M162.6,44.8h0a10.4,10.4,0,0,1,10.7-10.4,10.2,10.2,0,0,1,10.6,10.3h0a10.7,10.7,0,0,1-21.3,0Zm16.7,0h0a6.1,6.1,0,1,0-12.1-.1h0a6.1,6.1,0,1,0,12.1,0Z"/>
        <path class="cls-1" d="M193.7,51.8l2.6-3.1a9.2,9.2,0,0,0,6,2.5c1.8,0,2.9-.8,2.9-1.9h0c0-1.1-.7-1.7-4-2.5s-6.7-2.2-6.7-6.1h0c0-3.6,3-6,7.1-6A11.6,11.6,0,0,1,209,37l-2.3,3.3a9.7,9.7,0,0,0-5.2-2c-1.7,0-2.6.8-2.6,1.8h0c0,1.3.9,1.7,4.3,2.6s6.4,2.5,6.4,6h0c0,4-3,6.2-7.4,6.2A12.5,12.5,0,0,1,193.7,51.8Z"/>
        <path class="cls-1" d="M227.3,34.6h4.1l8.5,20.2h-4.6l-1.8-4.5H225l-1.8,4.5h-4.5Zm4.6,11.8-2.6-6.5-2.7,6.5Z"/>
        <path class="cls-1" d="M245.9,34.7h4.8L256,48.8l5.2-14.1H266l-8.1,20.2H254Z"/>
        <path class="cls-1" d="M280.5,34.6h4l8.6,20.2h-4.6l-1.8-4.5h-8.5l-1.8,4.5h-4.5Zm4.6,11.8-2.6-6.5-2.7,6.5Z"/>
        <path class="cls-1" d="M308.5,44.6l-6.7-9.9H307l4.2,6.5,4.2-6.5h5l-6.7,9.8,7,10.3h-5.1l-4.5-6.9-4.5,6.9h-5Z"/>
      </g>
    </g>
  </g>
</svg>
